<svg width="36" height="36" viewBox="0 0 36 36" fill="none" xmlns="http://www.w3.org/2000/svg">
<path d="M18 19.125V30.375C18 30.9717 17.7629 31.544 17.341 31.966C16.919 32.3879 16.3467 32.625 15.75 32.625C15.1533 32.625 14.581 32.3879 14.159 31.966C13.7371 31.544 13.5 30.9717 13.5 30.375M18 19.125L17.3187 18.6138C16.2588 17.8191 14.9479 17.4332 13.6265 17.5271C12.305 17.621 11.0618 18.1884 10.125 19.125C9.6818 18.6818 9.15563 18.3302 8.57655 18.0903C7.99746 17.8504 7.3768 17.727 6.75 17.727C6.1232 17.727 5.50254 17.8504 4.92345 18.0903C4.34437 18.3302 3.8182 18.6818 3.375 19.125C3.375 11.0475 9.9225 4.5 18 4.5M18 19.125L18.6813 18.6138C19.7412 17.8191 21.0521 17.4332 22.3735 17.5271C23.695 17.621 24.9382 18.1884 25.875 19.125C26.3182 18.6818 26.8444 18.3302 27.4234 18.0903C28.0025 17.8504 28.6232 17.727 29.25 17.727C29.8768 17.727 30.4975 17.8504 31.0766 18.0903C31.6556 18.3302 32.1818 18.6818 32.625 19.125C32.625 11.0475 26.0775 4.5 18 4.5M18 4.5V3.375" stroke="#0D0D0D" stroke-width="1.5" stroke-linecap="round" stroke-linejoin="round"/>
<circle cx="29" cy="28.5" r="4" fill="#14AE5C"/>
<path d="M27.5 26.5V26.9091H28.3182C28.6665 26.9091 29.1243 27.1218 29.2834 27.5227H27.5V27.9318H29.3346C29.2714 28.4657 28.7218 28.75 28.3182 28.75H27.5V29.255L29.5966 31H30.2358L28.024 29.1591H28.3182C28.9797 29.1591 29.6837 28.6702 29.7437 27.9318H30.7727V27.5227H29.7115C29.6496 27.2805 29.5168 27.0738 29.3409 26.9091H30.7727V26.5H27.5Z" fill="#FDFDFD"/>
<circle cx="7" cy="28.5" r="4" fill="#14AE5C"/>
<path d="M5.5 26.5V26.9091H6.31818C6.66652 26.9091 7.1243 27.1218 7.28343 27.5227H5.5V27.9318H7.33457C7.27136 28.4657 6.72175 28.75 6.31818 28.75H5.5V29.255L7.59659 31H8.2358L6.02405 29.1591H6.31818C6.97968 29.1591 7.68373 28.6702 7.74366 27.9318H8.77273V27.5227H7.71155C7.64957 27.2805 7.51682 27.0738 7.34091 26.9091H8.77273V26.5H5.5Z" fill="#FDFDFD"/>
</svg>
