<svg width="36" height="36" viewBox="0 0 36 36" fill="none" xmlns="http://www.w3.org/2000/svg">
<path d="M15.1926 12.5C12.6926 14.3333 7.99261 19.6 9.19261 26C10.6926 34 18.9323 35.4081 25.1934 33C31.6934 30.5 32.6934 19.5 24.1934 12.5M15.1926 12.5H24.1934M15.1926 12.5V10.5C15.1926 10.2239 15.4172 10 15.6934 10V10M24.1934 12.5V10.5C24.1934 10.2239 23.9695 10 23.6934 10H23.4434M15.6934 10L14.2997 5.35444C14.2365 5.14385 14.3183 4.9167 14.5013 4.79474L18.2221 2.31418C18.4723 2.14735 18.8122 2.2376 18.9467 2.5066L19.9434 4.5M15.6934 10H22.6934M22.6934 10H23.4434M22.6934 10L19.9434 4.5M23.4434 10L24.987 4.70763C25.0859 4.36841 24.8113 4.03638 24.4596 4.06989L19.9434 4.5" stroke="#0D0D0D" stroke-width="1.5"/>
<rect x="5.5" y="26.5" width="10" height="2.5" rx="1.25" fill="#14AE5C" stroke="#0D0D0D"/>
<rect x="5.5" y="29" width="10" height="2.5" rx="1.25" fill="#14AE5C" stroke="#0D0D0D"/>
<rect x="5.5" y="31.5" width="10" height="2.5" rx="1.25" fill="#14AE5C" stroke="#0D0D0D"/>
</svg>
