<svg width="36" height="36" viewBox="0 0 36 36" fill="none" xmlns="http://www.w3.org/2000/svg">
<circle cx="18" cy="10" r="8" fill="#14AE5C"/>
<path d="M15 6V6.81818H16.6364C17.333 6.81818 18.2486 7.24364 18.5669 8.04545H15V8.86364H18.6691C18.5427 9.93136 17.4435 10.5 16.6364 10.5H15V11.51L19.1932 15H20.4716L16.0481 11.3182H16.6364C17.9594 11.3182 19.3675 10.3405 19.4873 8.86364H21.5455V8.04545H19.4231C19.2991 7.56109 19.0336 7.1475 18.6818 6.81818H21.5455V6H15Z" fill="#FDFDFD"/>
<path d="M2 22.1801C5.2685 19.3335 7.3101 19.3403 10.9751 21.8166C11.3181 22.0484 11.7223 22.1801 12.1363 22.1801H17.0557C17.6767 22.1801 18.3184 22.2928 18.7797 22.7085C20.0822 23.8823 20.1327 25.827 18 26.6801M18 26.6801H19.1067C19.3664 26.6801 19.6236 26.6295 19.864 26.5312L29.408 22.6268C30.1291 22.3318 30.9195 22.1071 31.6664 22.3284C32.415 22.5502 32.9968 23.0474 33.3235 23.9941C33.462 24.3954 33.2533 24.821 32.8848 25.0316L19.7306 32.5483C19.5795 32.6346 19.4085 32.6801 19.2344 32.6801H2M18 26.6801H11" stroke="#0D0D0D" stroke-width="1.5" stroke-linecap="round"/>
</svg>
