<svg width="36" height="36" viewBox="0 0 36 36" fill="none" xmlns="http://www.w3.org/2000/svg">
<g clip-path="url(#clip0_1064_3979)">
<path d="M20 8V8.71591H21.4318C22.0414 8.71591 22.8425 9.08818 23.121 9.78977H20V10.5057H23.2105C23.0999 11.4399 22.1381 11.9375 21.4318 11.9375H20V12.8213L23.669 15.875H24.7876L20.9171 12.6534H21.4318C22.5894 12.6534 23.8215 11.7979 23.9264 10.5057H25.7273V9.78977H23.8702C23.7617 9.36595 23.5294 9.00406 23.2216 8.71591H25.7273V8H20Z" fill="#14AE5C"/>
<path d="M22.5 2V1C22.5 0.723858 22.2761 0.5 22 0.5H14C13.7239 0.5 13.5 0.723858 13.5 1V20.5C13.5 20.7761 13.2761 21 13 21H8.9926C8.58195 21 8.34639 21.4676 8.59083 21.7976L17.5982 33.9576C17.7981 34.2274 18.2019 34.2274 18.4018 33.9576L27.4092 21.7976C27.6536 21.4676 27.418 21 27.0074 21H23C22.7239 21 22.5 20.7761 22.5 20.5V19" stroke="#0D0D0D" stroke-width="1.5" stroke-linecap="round"/>
<circle cx="22.5" cy="10.5" r="7.5" fill="#14AE5C"/>
<path d="M19.6875 6.75V7.51705H21.2216C21.8747 7.51705 22.7331 7.91591 23.0314 8.66761H19.6875V9.43466H23.1273C23.0088 10.4357 21.9783 10.9688 21.2216 10.9688H19.6875V11.9157L23.6186 15.1875H24.8171L20.6701 11.7358H21.2216C22.4619 11.7358 23.782 10.8192 23.8944 9.43466H25.8239V8.66761H23.8341C23.7179 8.21352 23.469 7.82578 23.1392 7.51705H25.8239V6.75H19.6875Z" fill="#FDFDFD"/>
</g>
<defs>
<clipPath id="clip0_1064_3979">
<rect width="36" height="36" fill="white"/>
</clipPath>
</defs>
</svg>
