<svg width="36" height="36" viewBox="0 0 36 36" fill="none" xmlns="http://www.w3.org/2000/svg">
<g clip-path="url(#clip0_1064_3934)">
<rect x="24" y="10" width="3" height="19" rx="1" fill="#14AE5C"/>
<rect x="19" y="14" width="3" height="15" rx="1" fill="#14AE5C"/>
<rect x="14" y="18" width="3" height="11" rx="1" fill="#14AE5C"/>
<rect x="9" y="22" width="3" height="7" rx="1" fill="#14AE5C"/>
<path d="M6.03033 3.96967C5.73744 3.67678 5.26256 3.67678 4.96967 3.96967L0.196699 8.74264C-0.0961943 9.03553 -0.0961943 9.51041 0.196699 9.8033C0.489593 10.0962 0.964466 10.0962 1.25736 9.8033L5.5 5.56066L9.74264 9.8033C10.0355 10.0962 10.5104 10.0962 10.8033 9.8033C11.0962 9.51041 11.0962 9.03553 10.8033 8.74264L6.03033 3.96967ZM35.5303 32.0303C35.8232 31.7374 35.8232 31.2626 35.5303 30.9697L30.7574 26.1967C30.4645 25.9038 29.9896 25.9038 29.6967 26.1967C29.4038 26.4896 29.4038 26.9645 29.6967 27.2574L33.9393 31.5L29.6967 35.7426C29.4038 36.0355 29.4038 36.5104 29.6967 36.8033C29.9896 37.0962 30.4645 37.0962 30.7574 36.8033L35.5303 32.0303ZM4.75 4.5V31H6.25V4.5H4.75ZM6 32.25H35V30.75H6V32.25ZM4.75 31C4.75 31.6904 5.30964 32.25 6 32.25V30.75C6.13807 30.75 6.25 30.8619 6.25 31H4.75Z" fill="#0D0D0D"/>
</g>
<defs>
<clipPath id="clip0_1064_3934">
<rect width="36" height="36" fill="white"/>
</clipPath>
</defs>
</svg>
