<svg width="36" height="36" viewBox="0 0 36 36" fill="none" xmlns="http://www.w3.org/2000/svg">
<path d="M7.875 30.9375C8.18566 30.9375 8.4375 30.6857 8.4375 30.375C8.4375 30.0643 8.18566 29.8125 7.875 29.8125C7.56434 29.8125 7.3125 30.0643 7.3125 30.375C7.3125 30.6857 7.56434 30.9375 7.875 30.9375Z" fill="#0D0D0D"/>
<rect x="19.5" y="19.5" width="10" height="2.5" rx="1.25" fill="#14AE5C" stroke="#0D0D0D"/>
<rect x="19.5" y="22" width="10" height="2.5" rx="1.25" fill="#14AE5C" stroke="#0D0D0D"/>
<rect x="7.5" y="24.5" width="10" height="2.5" rx="1.25" fill="#14AE5C" stroke="#0D0D0D"/>
<rect x="7.5" y="27" width="10" height="2.5" rx="1.25" fill="#14AE5C" stroke="#0D0D0D"/>
<rect x="7.5" y="29.5" width="10" height="2.5" rx="1.25" fill="#14AE5C" stroke="#0D0D0D"/>
<rect x="19.5" y="24.5" width="10" height="2.5" rx="1.25" fill="#14AE5C" stroke="#0D0D0D"/>
<rect x="19.5" y="27" width="10" height="2.5" rx="1.25" fill="#14AE5C" stroke="#0D0D0D"/>
<rect x="19.5" y="29.5" width="10" height="2.5" rx="1.25" fill="#14AE5C" stroke="#0D0D0D"/>
<path d="M11.75 22.0003C11.75 22.4145 12.0858 22.7503 12.5 22.7503C12.9142 22.7503 13.25 22.4145 13.25 22.0003H11.75ZM23.9697 15.0306C24.2626 15.3235 24.7374 15.3235 25.0303 15.0306L29.8033 10.2576C30.0962 9.96473 30.0962 9.48985 29.8033 9.19696C29.5104 8.90407 29.0355 8.90407 28.7426 9.19696L24.5 13.4396L20.2574 9.19696C19.9645 8.90407 19.4896 8.90407 19.1967 9.19696C18.9038 9.48985 18.9038 9.96473 19.1967 10.2576L23.9697 15.0306ZM13.25 22.0003V12.1424H11.75V22.0003H13.25ZM16.0601 5.97673C16.9322 5.43658 17.6964 5.18911 18.4377 5.18525C19.1792 5.18139 19.9803 5.42076 20.9265 5.99883L21.7085 4.71881C20.597 4.03976 19.5241 3.67957 18.4299 3.68527C17.3357 3.69097 16.3025 4.0622 15.2703 4.70149L16.0601 5.97673ZM23.75 12.1424V14.5003H25.25V12.1424H23.75ZM20.9265 5.99883C22.8739 7.1886 23.75 9.62036 23.75 12.1424H25.25C25.25 9.36014 24.2875 6.29444 21.7085 4.71881L20.9265 5.99883ZM13.25 12.1424C13.25 9.61853 14.1185 7.17919 16.0601 5.97673L15.2703 4.70149C12.7023 6.2919 11.75 9.36196 11.75 12.1424H13.25Z" fill="#0D0D0D"/>
</svg>
