<svg width="32" height="32" viewBox="0 0 32 32" fill="none" xmlns="http://www.w3.org/2000/svg">
<g clip-path="url(#clip0_1212_9870)">
<path d="M4.60132 15.2698C4.35136 15.5198 4.21094 15.8589 4.21094 16.2125C4.21094 16.566 4.35136 16.9051 4.60132 17.1551L12.144 24.6978C12.267 24.8252 12.4141 24.9267 12.5768 24.9966C12.7395 25.0665 12.9144 25.1033 13.0914 25.1048C13.2685 25.1063 13.4441 25.0726 13.6079 25.0056C13.7718 24.9385 13.9207 24.8395 14.0458 24.7143C14.171 24.5891 14.27 24.4403 14.3371 24.2764C14.4041 24.1126 14.4379 23.937 14.4363 23.7599C14.4348 23.5829 14.398 23.4079 14.3281 23.2453C14.2582 23.0826 14.1567 22.9355 14.0293 22.8125L8.76265 17.5458L26.42 17.5458C26.7736 17.5458 27.1127 17.4053 27.3628 17.1553C27.6128 16.9052 27.7533 16.5661 27.7533 16.2125C27.7533 15.8589 27.6128 15.5197 27.3628 15.2697C27.1127 15.0196 26.7736 14.8791 26.42 14.8791L8.76265 14.8791L14.0293 9.61247C14.2722 9.361 14.4066 9.0242 14.4035 8.6746C14.4005 8.32501 14.2603 7.99059 14.0131 7.74338C13.7659 7.49617 13.4314 7.35594 13.0819 7.35291C12.7323 7.34987 12.3955 7.48426 12.144 7.72714L4.60132 15.2698Z" fill="#292929"/>
</g>
<defs>
<clipPath id="clip0_1212_9870">
<rect width="32" height="32" fill="white"/>
</clipPath>
</defs>
</svg>
