<svg width="30" height="24" viewBox="0 0 30 24" fill="none" xmlns="http://www.w3.org/2000/svg">
<path fill-rule="evenodd" clip-rule="evenodd" d="M12.5502 1.11667C12.7843 1.35104 12.9158 1.66875 12.9158 2C12.9158 2.33125 12.7843 2.64896 12.5502 2.88333L4.68354 10.75H28.3335C28.6651 10.75 28.983 10.8817 29.2174 11.1161C29.4518 11.3505 29.5835 11.6685 29.5835 12C29.5835 12.3315 29.4518 12.6495 29.2174 12.8839C28.983 13.1183 28.6651 13.25 28.3335 13.25H4.68354L12.5502 21.1167C12.673 21.2311 12.7715 21.3691 12.8398 21.5224C12.9082 21.6758 12.9449 21.8413 12.9479 22.0091C12.9508 22.177 12.9199 22.3437 12.8571 22.4993C12.7942 22.655 12.7006 22.7964 12.5819 22.9151C12.4632 23.0338 12.3218 23.1273 12.1662 23.1902C12.0106 23.2531 11.8438 23.2839 11.676 23.281C11.5082 23.278 11.3426 23.2413 11.1893 23.173C11.036 23.1046 10.898 23.0061 10.7835 22.8833L0.783536 12.8833C0.549451 12.649 0.417969 12.3312 0.417969 12C0.417969 11.6687 0.549451 11.351 0.783536 11.1167L10.7835 1.11667C11.0179 0.882581 11.3356 0.751099 11.6669 0.751099C11.9981 0.751099 12.3158 0.882581 12.5502 1.11667Z" fill="#06867B"/>
</svg>
