<svg width="56" height="57" viewBox="0 0 56 57" fill="none" xmlns="http://www.w3.org/2000/svg">
<path d="M4.22397 23.5684C4.88032 22.9123 5.7704 22.5437 6.69847 22.5437C7.62655 22.5437 8.51662 22.9123 9.17297 23.5684L20.8418 35.2373C21.2324 35.6278 21.8656 35.6278 22.2561 35.2372L46.294 11.1959C46.6189 10.8708 47.0047 10.6128 47.4294 10.4367C47.8541 10.2606 48.3093 10.1699 48.769 10.1697C49.2287 10.1696 49.6839 10.26 50.1087 10.4357C50.5335 10.6115 50.9195 10.8692 51.2447 11.1942C51.5699 11.5192 51.8279 11.905 52.004 12.3296C52.1801 12.7543 52.2708 13.2095 52.2709 13.6692C52.2711 14.1289 52.1807 14.5842 52.0049 15.009C51.8291 15.4338 51.5714 15.8198 51.2465 16.1449L22.9632 44.4282C22.1821 45.2093 20.9158 45.2093 20.1348 44.4282L4.22397 28.5174C3.56782 27.8611 3.19922 26.971 3.19922 26.0429C3.19922 25.1149 3.56782 24.2248 4.22397 23.5684Z" fill="#D3F7F5"/>
</svg>
