<svg width="75" height="75" viewBox="0 0 75 75" fill="none" xmlns="http://www.w3.org/2000/svg">
<path d="M37.5 75C58.2107 75 75 59.1114 75 39.5118C75 19.9123 58.2107 4.02368 37.5 4.02368C16.7893 4.02368 0 19.9123 0 39.5118C0 59.1114 16.7893 75 37.5 75Z" fill="#CEEEED"/>
<path d="M47.4185 34.8378H27.5781V56.0455H47.4185V34.8378Z" fill="#E2988F"/>
<path d="M56.932 19.9502C55.8376 17.4739 53.6012 18.6894 53.6012 18.6894C54.8924 7.4314 48.8435 0 37.5008 0C26.1581 0 20.1098 7.4314 21.401 18.6901C21.401 18.6901 19.1653 17.4745 18.0702 19.9508C16.9759 22.4271 18.9745 28.236 20.2113 30.0816C21.4487 31.9279 23.6368 33.3234 23.6368 33.3234C23.6368 33.3234 23.7799 35.3947 24.3503 36.8353C24.9213 38.2759 31.3921 44.9012 33.2953 45.9146C35.7904 47.3044 39.4665 47.3044 41.7063 45.9146C43.6095 44.9018 50.0803 38.2766 50.6513 36.8353C51.2223 35.394 51.3648 33.3234 51.3648 33.3234C51.3648 33.3234 53.5535 31.9272 54.7903 30.0816C56.0277 28.2354 58.0264 22.4271 56.932 19.9502Z" fill="#E2988F"/>
<path d="M37.5973 47.1893C36.0387 47.1893 34.4459 46.8333 33.1648 46.12C32.0126 45.5071 29.363 42.9978 27.3906 40.9265L27.7648 40.6073C29.7728 42.7148 32.3586 45.1434 33.416 45.7067C35.8298 47.0507 39.4078 47.0539 41.565 45.715C42.6378 45.1434 45.2229 42.7155 47.2316 40.6073L47.6058 40.9265C45.6334 42.9978 42.9838 45.5071 41.827 46.1219C40.6822 46.8327 39.1572 47.1893 37.5973 47.1893Z" fill="#C46966"/>
<path d="M23.2618 28.4646L22.7617 28.5229L23.391 33.3519L23.8911 33.2936L23.2618 28.4646Z" fill="#C46966"/>
<path d="M51.7085 28.4674L51.1406 33.2969L51.6421 33.3497L52.21 28.5202L51.7085 28.4674Z" fill="#C46966"/>
<path d="M19.5317 25.5183C19.4262 25.1534 18.5347 21.9269 19.7654 21.0439C20.1719 20.7927 20.5044 20.8188 20.7147 20.8836C21.3415 21.0763 21.6532 21.8087 21.6875 21.892L21.2172 22.063C21.148 21.8958 20.8968 21.4406 20.5582 21.3369C20.4043 21.2886 20.2377 21.3211 20.055 21.4342C19.3462 21.9435 19.6539 24.1337 20.0174 25.3925L19.5317 25.5183Z" fill="#C46966"/>
<path d="M55.4683 25.5181L54.9826 25.3923C55.346 24.1334 55.6544 21.9432 54.9309 21.4238C54.7616 21.3202 54.597 21.2891 54.4411 21.3367C54.0367 21.4607 53.7855 22.0564 53.7834 22.0621L53.3125 21.8911C53.3468 21.8085 53.6591 21.0754 54.2853 20.8828C54.4955 20.818 54.8288 20.7925 55.2197 21.0335C56.4653 21.9261 55.5738 25.1526 55.4683 25.5181Z" fill="#C46966"/>
<path d="M23.0098 24.6111C26.3762 24.6276 23.8301 14.348 26.471 11.8603C27.8132 10.5964 29.7729 10.8018 31.4524 11.2074C33.4093 11.6797 35.4301 12.3174 37.4952 12.3689C39.6813 12.4236 41.7538 11.6658 43.8498 11.1851C45.4763 10.8126 47.2451 10.6473 48.533 11.8609C51.1738 14.3487 48.6283 24.6283 51.9941 24.6117C51.761 22.2353 51.7542 19.6306 53.6017 18.6909L53.603 18.6884C54.8936 7.43096 48.844 0.00146484 37.5026 0.00146484C26.1606 0.00146484 20.111 7.43287 21.4022 18.6909C22.9024 19.6128 23.2456 22.124 23.0098 24.6111Z" fill="#0D0D0D"/>
<path d="M69.5479 57.9458C58.9596 53.4751 47.4187 51.8901 47.4187 51.8901C42.1229 57.1155 32.2595 57.1892 27.5784 51.8901C27.5784 51.8901 16.0375 53.4751 5.44922 57.9458C12.0302 68.1713 23.9218 75 37.4989 75C51.076 75 62.9669 68.1713 69.5479 57.9458Z" fill="#0EACA4"/>
<path d="M24.8984 52.2512L27.5789 47.701L36.2579 55.074L30.948 60.5809L24.8984 52.2512Z" fill="white"/>
<path d="M50.0867 52.2512L47.4062 47.701L38.7266 55.074L44.0372 60.5809L50.0867 52.2512Z" fill="white"/>
</svg>
