<svg width="88" height="88" viewBox="0 0 88 88" fill="none" xmlns="http://www.w3.org/2000/svg">
<g filter="url(#filter0_d_1212_9398)">
<circle cx="44" cy="38" r="28" fill="white"/>
</g>
<path d="M44.0013 24.6666C36.6546 24.6666 30.668 30.6533 30.668 38C30.668 45.3466 36.6546 51.3333 44.0013 51.3333C51.348 51.3333 57.3346 45.3466 57.3346 38C57.3346 30.6533 51.348 24.6666 44.0013 24.6666ZM50.3746 34.9333L42.8146 42.4933C42.628 42.68 42.3746 42.7866 42.108 42.7866C41.8413 42.7866 41.588 42.68 41.4013 42.4933L37.628 38.72C37.2413 38.3333 37.2413 37.6933 37.628 37.3066C38.0146 36.92 38.6546 36.92 39.0413 37.3066L42.108 40.3733L48.9613 33.52C49.348 33.1333 49.988 33.1333 50.3746 33.52C50.7613 33.9066 50.7613 34.5333 50.3746 34.9333Z" fill="#14AE5C"/>
<defs>
<filter id="filter0_d_1212_9398" x="0" y="0" width="88" height="88" filterUnits="userSpaceOnUse" color-interpolation-filters="sRGB">
<feFlood flood-opacity="0" result="BackgroundImageFix"/>
<feColorMatrix in="SourceAlpha" type="matrix" values="0 0 0 0 0 0 0 0 0 0 0 0 0 0 0 0 0 0 127 0" result="hardAlpha"/>
<feOffset dy="6"/>
<feGaussianBlur stdDeviation="8"/>
<feComposite in2="hardAlpha" operator="out"/>
<feColorMatrix type="matrix" values="0 0 0 0 0.48 0 0 0 0 0.48 0 0 0 0 0.48 0 0 0 0.12 0"/>
<feBlend mode="normal" in2="BackgroundImageFix" result="effect1_dropShadow_1212_9398"/>
<feBlend mode="normal" in="SourceGraphic" in2="effect1_dropShadow_1212_9398" result="shape"/>
</filter>
</defs>
</svg>
